<svg xmlns="http://www.w3.org/2000/svg" xmlns:xlink="http://www.w3.org/1999/xlink" width="1600" zoomAndPan="magnify" viewBox="0 0 1200 299.999988" height="400" preserveAspectRatio="xMidYMid meet" version="1.0"><defs><g/><clipPath id="7bf6a5938a"><path d="M 61.746094 71.515625 L 209.226562 71.515625 L 209.226562 234.265625 L 61.746094 234.265625 Z M 61.746094 71.515625 " clip-rule="nonzero"/></clipPath></defs><g clip-path="url(#7bf6a5938a)"><path fill="#0074e0" d="M 61.855469 200.132812 C 76.601562 220.65625 100.660156 234.035156 127.859375 234.035156 C 172.730469 234.035156 209.101562 197.660156 209.101562 152.789062 C 209.101562 107.917969 172.730469 71.546875 127.859375 71.546875 C 123.625 71.542969 119.414062 71.867188 115.226562 72.523438 C 111.042969 73.179688 106.933594 74.160156 102.902344 75.460938 C 98.871094 76.765625 94.964844 78.375 91.1875 80.292969 C 87.40625 82.207031 83.800781 84.40625 80.367188 86.890625 C 105.125 95.410156 121.28125 105.429688 133.546875 114.089844 L 175.480469 116.609375 C 175.480469 116.609375 177.925781 122.167969 165.71875 132.882812 C 156.1875 141.246094 145.921875 134.886719 146.855469 141.691406 C 148.960938 157.007812 158.902344 168.707031 165.3125 172.15625 C 165.3125 172.15625 171.277344 175.953125 174.742188 173.367188 C 174.742188 173.367188 178.109375 173.878906 177.539062 177.609375 C 176.777344 182.597656 170.863281 188.835938 168.972656 190.871094 C 161.761719 198.640625 119.394531 219.871094 61.957031 199.726562 C 61.917969 199.855469 61.890625 200 61.855469 200.132812 Z M 137.980469 151.625 C 137.980469 151.945312 137.953125 152.261719 137.890625 152.574219 C 137.828125 152.886719 137.734375 153.191406 137.613281 153.488281 C 137.492188 153.78125 137.339844 154.0625 137.164062 154.328125 C 136.988281 154.59375 136.785156 154.839844 136.558594 155.0625 C 136.332031 155.289062 136.089844 155.492188 135.824219 155.667969 C 135.558594 155.847656 135.277344 155.996094 134.984375 156.117188 C 134.6875 156.242188 134.382812 156.332031 134.070312 156.394531 C 133.757812 156.457031 133.441406 156.488281 133.121094 156.488281 C 132.804688 156.488281 132.488281 156.457031 132.175781 156.394531 C 131.863281 156.332031 131.558594 156.242188 131.261719 156.117188 C 130.96875 155.996094 130.6875 155.847656 130.421875 155.671875 C 130.15625 155.492188 129.910156 155.292969 129.6875 155.066406 C 129.460938 154.839844 129.257812 154.59375 129.082031 154.328125 C 128.902344 154.0625 128.753906 153.785156 128.632812 153.488281 C 128.507812 153.195312 128.417969 152.890625 128.355469 152.578125 C 128.292969 152.265625 128.261719 151.949219 128.261719 151.628906 C 128.261719 151.308594 128.292969 150.992188 128.355469 150.679688 C 128.417969 150.367188 128.507812 150.0625 128.632812 149.769531 C 128.753906 149.472656 128.902344 149.195312 129.082031 148.929688 C 129.257812 148.664062 129.460938 148.417969 129.683594 148.191406 C 129.910156 147.964844 130.15625 147.765625 130.421875 147.585938 C 130.6875 147.410156 130.96875 147.261719 131.261719 147.136719 C 131.554688 147.015625 131.859375 146.921875 132.171875 146.863281 C 132.488281 146.800781 132.800781 146.769531 133.121094 146.769531 C 133.441406 146.769531 133.757812 146.800781 134.070312 146.863281 C 134.382812 146.921875 134.6875 147.015625 134.980469 147.136719 C 135.277344 147.261719 135.554688 147.410156 135.820312 147.585938 C 136.085938 147.765625 136.332031 147.964844 136.558594 148.191406 C 136.785156 148.417969 136.984375 148.664062 137.164062 148.925781 C 137.339844 149.191406 137.488281 149.472656 137.613281 149.765625 C 137.734375 150.0625 137.824219 150.367188 137.886719 150.679688 C 137.949219 150.992188 137.980469 151.308594 137.980469 151.625 Z M 137.980469 151.625 " fill-opacity="1" fill-rule="nonzero"/></g><g fill="#0074e0" fill-opacity="1"><g transform="translate(219.490523, 227.999981)"><g><path d="M 38.078125 -152.125 L 38.078125 0 L 12.796875 0 L 12.796875 -152.125 Z M 38.078125 -152.125 "/></g></g></g><g fill="#0074e0" fill-opacity="1"><g transform="translate(266.88668, 227.999981)"><g><path d="M 80.15625 -64.59375 C 80.15625 -67.863281 79.691406 -70.945312 78.765625 -73.84375 C 77.847656 -76.75 76.46875 -79.296875 74.625 -81.484375 C 72.78125 -83.671875 70.441406 -85.394531 67.609375 -86.65625 C 64.773438 -87.914062 61.484375 -88.546875 57.734375 -88.546875 C 50.429688 -88.546875 44.679688 -86.460938 40.484375 -82.296875 C 36.285156 -78.140625 33.609375 -72.238281 32.453125 -64.59375 Z M 31.9375 -49.34375 C 32.34375 -43.945312 33.296875 -39.285156 34.796875 -35.359375 C 36.304688 -31.441406 38.285156 -28.203125 40.734375 -25.640625 C 43.191406 -23.078125 46.109375 -21.164062 49.484375 -19.90625 C 52.867188 -18.644531 56.609375 -18.015625 60.703125 -18.015625 C 64.796875 -18.015625 68.328125 -18.492188 71.296875 -19.453125 C 74.265625 -20.410156 76.859375 -21.46875 79.078125 -22.625 C 81.296875 -23.78125 83.238281 -24.835938 84.90625 -25.796875 C 86.582031 -26.753906 88.207031 -27.234375 89.78125 -27.234375 C 91.894531 -27.234375 93.460938 -26.445312 94.484375 -24.875 L 101.75 -15.65625 C 98.957031 -12.382812 95.816406 -9.640625 92.328125 -7.421875 C 88.847656 -5.203125 85.210938 -3.425781 81.421875 -2.09375 C 77.640625 -0.769531 73.785156 0.160156 69.859375 0.703125 C 65.941406 1.253906 62.140625 1.53125 58.453125 1.53125 C 51.148438 1.53125 44.359375 0.320312 38.078125 -2.09375 C 31.796875 -4.519531 26.332031 -8.101562 21.6875 -12.84375 C 17.050781 -17.59375 13.398438 -23.460938 10.734375 -30.453125 C 8.078125 -37.453125 6.75 -45.554688 6.75 -54.765625 C 6.75 -61.929688 7.910156 -68.671875 10.234375 -74.984375 C 12.554688 -81.296875 15.882812 -86.789062 20.21875 -91.46875 C 24.550781 -96.144531 29.835938 -99.847656 36.078125 -102.578125 C 42.328125 -105.304688 49.375 -106.671875 57.21875 -106.671875 C 63.84375 -106.671875 69.953125 -105.609375 75.546875 -103.484375 C 81.140625 -101.367188 85.945312 -98.28125 89.96875 -94.21875 C 94 -90.164062 97.15625 -85.1875 99.4375 -79.28125 C 101.726562 -73.375 102.875 -66.632812 102.875 -59.0625 C 102.875 -55.238281 102.460938 -52.660156 101.640625 -51.328125 C 100.828125 -50.003906 99.257812 -49.34375 96.9375 -49.34375 Z M 31.9375 -49.34375 "/></g></g></g><g fill="#0074e0" fill-opacity="1"><g transform="translate(372.734793, 227.999981)"><g><path d="M 67.96875 -44.84375 C 60.664062 -44.5 54.523438 -43.863281 49.546875 -42.9375 C 44.566406 -42.019531 40.570312 -40.84375 37.5625 -39.40625 C 34.5625 -37.976562 32.410156 -36.304688 31.109375 -34.390625 C 29.816406 -32.484375 29.171875 -30.40625 29.171875 -28.15625 C 29.171875 -23.71875 30.484375 -20.539062 33.109375 -18.625 C 35.742188 -16.71875 39.175781 -15.765625 43.40625 -15.765625 C 48.59375 -15.765625 53.078125 -16.703125 56.859375 -18.578125 C 60.648438 -20.453125 64.351562 -23.300781 67.96875 -27.125 Z M 10.03125 -90.390625 C 22.113281 -101.441406 36.648438 -106.96875 53.640625 -106.96875 C 59.785156 -106.96875 65.28125 -105.960938 70.125 -103.953125 C 74.96875 -101.941406 79.0625 -99.144531 82.40625 -95.5625 C 85.75 -91.976562 88.289062 -87.691406 90.03125 -82.703125 C 91.769531 -77.722656 92.640625 -72.265625 92.640625 -66.328125 L 92.640625 0 L 81.171875 0 C 78.785156 0 76.941406 -0.359375 75.640625 -1.078125 C 74.347656 -1.796875 73.328125 -3.242188 72.578125 -5.421875 L 70.328125 -13 C 67.660156 -10.613281 65.066406 -8.515625 62.546875 -6.703125 C 60.023438 -4.898438 57.394531 -3.382812 54.65625 -2.15625 C 51.925781 -0.925781 49.007812 0.0078125 45.90625 0.65625 C 42.800781 1.3125 39.375 1.640625 35.625 1.640625 C 31.1875 1.640625 27.085938 1.046875 23.328125 -0.140625 C 19.578125 -1.335938 16.335938 -3.128906 13.609375 -5.515625 C 10.878906 -7.910156 8.765625 -10.878906 7.265625 -14.421875 C 5.765625 -17.972656 5.015625 -22.101562 5.015625 -26.8125 C 5.015625 -29.476562 5.457031 -32.125 6.34375 -34.75 C 7.226562 -37.375 8.675781 -39.878906 10.6875 -42.265625 C 12.707031 -44.660156 15.320312 -46.914062 18.53125 -49.03125 C 21.738281 -51.144531 25.675781 -52.988281 30.34375 -54.5625 C 35.019531 -56.132812 40.460938 -57.414062 46.671875 -58.40625 C 52.890625 -59.394531 59.988281 -59.988281 67.96875 -60.1875 L 67.96875 -66.328125 C 67.96875 -73.359375 66.46875 -78.5625 63.46875 -81.9375 C 60.46875 -85.320312 56.132812 -87.015625 50.46875 -87.015625 C 46.375 -87.015625 42.976562 -86.535156 40.28125 -85.578125 C 37.582031 -84.617188 35.207031 -83.539062 33.15625 -82.34375 C 31.113281 -81.15625 29.253906 -80.082031 27.578125 -79.125 C 25.910156 -78.175781 24.054688 -77.703125 22.015625 -77.703125 C 20.234375 -77.703125 18.726562 -78.160156 17.5 -79.078125 C 16.269531 -79.992188 15.28125 -81.066406 14.53125 -82.296875 Z M 10.03125 -90.390625 "/></g></g></g><g fill="#0074e0" fill-opacity="1"><g transform="translate(473.157423, 227.999981)"><g><path d="M 78.40625 -78.203125 C 75.539062 -81.679688 72.421875 -84.140625 69.046875 -85.578125 C 65.671875 -87.015625 62.035156 -87.734375 58.140625 -87.734375 C 54.316406 -87.734375 50.867188 -87.015625 47.796875 -85.578125 C 44.734375 -84.140625 42.109375 -81.972656 39.921875 -79.078125 C 37.734375 -76.179688 36.0625 -72.492188 34.90625 -68.015625 C 33.75 -63.546875 33.171875 -58.273438 33.171875 -52.203125 C 33.171875 -46.066406 33.664062 -40.863281 34.65625 -36.59375 C 35.644531 -32.332031 37.054688 -28.851562 38.890625 -26.15625 C 40.734375 -23.457031 42.984375 -21.507812 45.640625 -20.3125 C 48.304688 -19.125 51.28125 -18.53125 54.5625 -18.53125 C 59.8125 -18.53125 64.28125 -19.617188 67.96875 -21.796875 C 71.65625 -23.984375 75.132812 -27.09375 78.40625 -31.125 Z M 103.703125 -152.125 L 103.703125 0 L 88.234375 0 C 84.890625 0 82.773438 -1.535156 81.890625 -4.609375 L 79.75 -14.734375 C 75.507812 -9.890625 70.644531 -5.96875 65.15625 -2.96875 C 59.664062 0.03125 53.269531 1.53125 45.96875 1.53125 C 40.226562 1.53125 34.96875 0.335938 30.1875 -2.046875 C 25.414062 -4.429688 21.304688 -7.894531 17.859375 -12.4375 C 14.410156 -16.976562 11.75 -22.59375 9.875 -29.28125 C 8 -35.96875 7.0625 -43.609375 7.0625 -52.203125 C 7.0625 -59.984375 8.117188 -67.21875 10.234375 -73.90625 C 12.347656 -80.59375 15.382812 -86.394531 19.34375 -91.3125 C 23.300781 -96.226562 28.046875 -100.066406 33.578125 -102.828125 C 39.109375 -105.585938 45.316406 -106.96875 52.203125 -106.96875 C 58.078125 -106.96875 63.09375 -106.046875 67.25 -104.203125 C 71.414062 -102.367188 75.132812 -99.878906 78.40625 -96.734375 L 78.40625 -152.125 Z M 103.703125 -152.125 "/></g></g></g><g fill="#0074e0" fill-opacity="1"><g transform="translate(585.86414, 227.999981)"><g><path d="M 47.5 1.640625 C 38.351562 1.640625 31.335938 -0.929688 26.453125 -6.078125 C 21.578125 -11.234375 19.140625 -18.351562 19.140625 -27.4375 L 19.140625 -86.09375 L 8.390625 -86.09375 C 7.023438 -86.09375 5.863281 -86.535156 4.90625 -87.421875 C 3.957031 -88.304688 3.484375 -89.632812 3.484375 -91.40625 L 3.484375 -101.453125 L 20.375 -104.203125 L 25.6875 -132.875 C 26.03125 -134.238281 26.679688 -135.296875 27.640625 -136.046875 C 28.597656 -136.796875 29.828125 -137.171875 31.328125 -137.171875 L 44.421875 -137.171875 L 44.421875 -104.109375 L 72.46875 -104.109375 L 72.46875 -86.09375 L 44.421875 -86.09375 L 44.421875 -29.171875 C 44.421875 -25.898438 45.222656 -23.34375 46.828125 -21.5 C 48.429688 -19.65625 50.632812 -18.734375 53.4375 -18.734375 C 55.007812 -18.734375 56.320312 -18.921875 57.375 -19.296875 C 58.4375 -19.671875 59.359375 -20.0625 60.140625 -20.46875 C 60.921875 -20.882812 61.617188 -21.28125 62.234375 -21.65625 C 62.847656 -22.03125 63.460938 -22.21875 64.078125 -22.21875 C 64.828125 -22.21875 65.441406 -22.03125 65.921875 -21.65625 C 66.398438 -21.28125 66.910156 -20.71875 67.453125 -19.96875 L 75.03125 -7.671875 C 71.34375 -4.609375 67.109375 -2.289062 62.328125 -0.71875 C 57.554688 0.851562 52.613281 1.640625 47.5 1.640625 Z M 47.5 1.640625 "/></g></g></g><g fill="#0074e0" fill-opacity="1"><g transform="translate(658.54508, 227.999981)"><g><path d="M 36.34375 -86.8125 C 39.613281 -93.082031 43.5 -98.007812 48 -101.59375 C 52.507812 -105.175781 57.835938 -106.96875 63.984375 -106.96875 C 68.828125 -106.96875 72.71875 -105.910156 75.65625 -103.796875 L 74.015625 -84.859375 C 73.671875 -83.628906 73.171875 -82.757812 72.515625 -82.25 C 71.867188 -81.738281 71.003906 -81.484375 69.921875 -81.484375 C 68.890625 -81.484375 67.367188 -81.65625 65.359375 -82 C 63.347656 -82.34375 61.382812 -82.515625 59.46875 -82.515625 C 56.675781 -82.515625 54.1875 -82.101562 52 -81.28125 C 49.820312 -80.457031 47.859375 -79.273438 46.109375 -77.734375 C 44.367188 -76.203125 42.832031 -74.34375 41.5 -72.15625 C 40.175781 -69.976562 38.9375 -67.492188 37.78125 -64.703125 L 37.78125 0 L 12.484375 0 L 12.484375 -105.03125 L 27.328125 -105.03125 C 29.921875 -105.03125 31.726562 -104.566406 32.75 -103.640625 C 33.78125 -102.722656 34.46875 -101.070312 34.8125 -98.6875 Z M 36.34375 -86.8125 "/></g></g></g><g fill="#0074e0" fill-opacity="1"><g transform="translate(731.430801, 227.999981)"><g><path d="M 102.984375 -105.03125 L 102.984375 0 L 87.53125 0 C 84.1875 0 82.066406 -1.535156 81.171875 -4.609375 L 79.4375 -13 C 75.132812 -8.632812 70.390625 -5.101562 65.203125 -2.40625 C 60.015625 0.289062 53.910156 1.640625 46.890625 1.640625 C 41.148438 1.640625 36.078125 0.664062 31.671875 -1.28125 C 27.273438 -3.226562 23.578125 -5.972656 20.578125 -9.515625 C 17.578125 -13.066406 15.304688 -17.28125 13.765625 -22.15625 C 12.234375 -27.039062 11.46875 -32.414062 11.46875 -38.28125 L 11.46875 -105.03125 L 36.75 -105.03125 L 36.75 -38.28125 C 36.75 -31.863281 38.234375 -26.898438 41.203125 -23.390625 C 44.171875 -19.878906 48.625 -18.125 54.5625 -18.125 C 58.925781 -18.125 63.019531 -19.09375 66.84375 -21.03125 C 70.664062 -22.976562 74.285156 -25.660156 77.703125 -29.078125 L 77.703125 -105.03125 Z M 102.984375 -105.03125 "/></g></g></g><g fill="#0074e0" fill-opacity="1"><g transform="translate(843.42098, 227.999981)"><g><path d="M 19.859375 0 L 19.859375 -85.984375 L 10.75 -87.421875 C 8.769531 -87.828125 7.179688 -88.523438 5.984375 -89.515625 C 4.796875 -90.503906 4.203125 -91.921875 4.203125 -93.765625 L 4.203125 -104.109375 L 19.859375 -104.109375 L 19.859375 -111.890625 C 19.859375 -117.890625 20.757812 -123.28125 22.5625 -128.0625 C 24.375 -132.84375 26.96875 -136.90625 30.34375 -140.25 C 33.726562 -143.59375 37.84375 -146.148438 42.6875 -147.921875 C 47.53125 -149.691406 52.988281 -150.578125 59.0625 -150.578125 C 63.90625 -150.578125 68.410156 -149.929688 72.578125 -148.640625 L 72.0625 -135.9375 C 72 -134.988281 71.726562 -134.222656 71.25 -133.640625 C 70.769531 -133.054688 70.132812 -132.609375 69.34375 -132.296875 C 68.5625 -131.992188 67.660156 -131.789062 66.640625 -131.6875 C 65.617188 -131.59375 64.523438 -131.546875 63.359375 -131.546875 C 60.359375 -131.546875 57.679688 -131.21875 55.328125 -130.5625 C 52.972656 -129.914062 50.976562 -128.789062 49.34375 -127.1875 C 47.707031 -125.582031 46.460938 -123.46875 45.609375 -120.84375 C 44.753906 -118.21875 44.328125 -114.957031 44.328125 -111.0625 L 44.328125 -104.109375 L 71.65625 -104.109375 L 71.65625 -86.09375 L 45.140625 -86.09375 L 45.140625 0 Z M 19.859375 0 "/></g></g></g><g fill="#0074e0" fill-opacity="1"><g transform="translate(913.338012, 227.999981)"><g><path d="M 19.859375 0 L 19.859375 -85.984375 L 10.75 -87.421875 C 8.769531 -87.828125 7.179688 -88.523438 5.984375 -89.515625 C 4.796875 -90.503906 4.203125 -91.921875 4.203125 -93.765625 L 4.203125 -104.109375 L 19.859375 -104.109375 L 19.859375 -111.890625 C 19.859375 -117.890625 20.757812 -123.28125 22.5625 -128.0625 C 24.375 -132.84375 26.96875 -136.90625 30.34375 -140.25 C 33.726562 -143.59375 37.84375 -146.148438 42.6875 -147.921875 C 47.53125 -149.691406 52.988281 -150.578125 59.0625 -150.578125 C 63.90625 -150.578125 68.410156 -149.929688 72.578125 -148.640625 L 72.0625 -135.9375 C 72 -134.988281 71.726562 -134.222656 71.25 -133.640625 C 70.769531 -133.054688 70.132812 -132.609375 69.34375 -132.296875 C 68.5625 -131.992188 67.660156 -131.789062 66.640625 -131.6875 C 65.617188 -131.59375 64.523438 -131.546875 63.359375 -131.546875 C 60.359375 -131.546875 57.679688 -131.21875 55.328125 -130.5625 C 52.972656 -129.914062 50.976562 -128.789062 49.34375 -127.1875 C 47.707031 -125.582031 46.460938 -123.46875 45.609375 -120.84375 C 44.753906 -118.21875 44.328125 -114.957031 44.328125 -111.0625 L 44.328125 -104.109375 L 71.65625 -104.109375 L 71.65625 -86.09375 L 45.140625 -86.09375 L 45.140625 0 Z M 19.859375 0 "/></g></g></g><g fill="#0074e0" fill-opacity="1"><g transform="translate(983.255044, 227.999981)"><g><path d="M 38.078125 -152.125 L 38.078125 0 L 12.796875 0 L 12.796875 -152.125 Z M 38.078125 -152.125 "/></g></g></g><g fill="#0074e0" fill-opacity="1"><g transform="translate(1030.651158, 227.999981)"><g><path d="M 80.15625 -64.59375 C 80.15625 -67.863281 79.691406 -70.945312 78.765625 -73.84375 C 77.847656 -76.75 76.46875 -79.296875 74.625 -81.484375 C 72.78125 -83.671875 70.441406 -85.394531 67.609375 -86.65625 C 64.773438 -87.914062 61.484375 -88.546875 57.734375 -88.546875 C 50.429688 -88.546875 44.679688 -86.460938 40.484375 -82.296875 C 36.285156 -78.140625 33.609375 -72.238281 32.453125 -64.59375 Z M 31.9375 -49.34375 C 32.34375 -43.945312 33.296875 -39.285156 34.796875 -35.359375 C 36.304688 -31.441406 38.285156 -28.203125 40.734375 -25.640625 C 43.191406 -23.078125 46.109375 -21.164062 49.484375 -19.90625 C 52.867188 -18.644531 56.609375 -18.015625 60.703125 -18.015625 C 64.796875 -18.015625 68.328125 -18.492188 71.296875 -19.453125 C 74.265625 -20.410156 76.859375 -21.46875 79.078125 -22.625 C 81.296875 -23.78125 83.238281 -24.835938 84.90625 -25.796875 C 86.582031 -26.753906 88.207031 -27.234375 89.78125 -27.234375 C 91.894531 -27.234375 93.460938 -26.445312 94.484375 -24.875 L 101.75 -15.65625 C 98.957031 -12.382812 95.816406 -9.640625 92.328125 -7.421875 C 88.847656 -5.203125 85.210938 -3.425781 81.421875 -2.09375 C 77.640625 -0.769531 73.785156 0.160156 69.859375 0.703125 C 65.941406 1.253906 62.140625 1.53125 58.453125 1.53125 C 51.148438 1.53125 44.359375 0.320312 38.078125 -2.09375 C 31.796875 -4.519531 26.332031 -8.101562 21.6875 -12.84375 C 17.050781 -17.59375 13.398438 -23.460938 10.734375 -30.453125 C 8.078125 -37.453125 6.75 -45.554688 6.75 -54.765625 C 6.75 -61.929688 7.910156 -68.671875 10.234375 -74.984375 C 12.554688 -81.296875 15.882812 -86.789062 20.21875 -91.46875 C 24.550781 -96.144531 29.835938 -99.847656 36.078125 -102.578125 C 42.328125 -105.304688 49.375 -106.671875 57.21875 -106.671875 C 63.84375 -106.671875 69.953125 -105.609375 75.546875 -103.484375 C 81.140625 -101.367188 85.945312 -98.28125 89.96875 -94.21875 C 94 -90.164062 97.15625 -85.1875 99.4375 -79.28125 C 101.726562 -73.375 102.875 -66.632812 102.875 -59.0625 C 102.875 -55.238281 102.460938 -52.660156 101.640625 -51.328125 C 100.828125 -50.003906 99.257812 -49.34375 96.9375 -49.34375 Z M 31.9375 -49.34375 "/></g></g></g></svg>